<svg height="384" viewBox="0 0 432 288" width="576" xmlns="http://www.w3.org/2000/svg" xmlns:xlink="http://www.w3.org/1999/xlink">
  <defs>
    <style>
      *{stroke-linecap:butt;stroke-linejoin:round}
    </style>
  </defs>
  <g id="figure_1">
    <path d="M0 288h432V0H0z" fill="#fff" id="patch_1"/>
    <g id="axes_1">
      <path d="M54 252h334.8V34.56H54z" fill="#fff" id="patch_2"/>
      <g id="matplotlib.axis_1">
        <g id="xtick_1">
          <g id="line2d_1">
            <defs>
              <path d="M0 0v3.5" id="mbdc2f9ffd6" stroke="#000" stroke-width=".8"/>
            </defs>
            <use x="69.218" xlink:href="#mbdc2f9ffd6" y="242.116" stroke="#000" stroke-width=".8"/>
          </g>
          <g id="text_1">
            <defs>
              <path d="M10.594 35.5h62.593v-8.297H10.594z" id="DejaVuSans-2212"/>
              <path d="M31.781 34.625q-7.031 0-11.062-3.766-4.016-3.765-4.016-10.343 0-6.594 4.016-10.36Q24.75 6.391 31.78 6.391q7.032 0 11.078 3.78 4.063 3.798 4.063 10.345 0 6.578-4.031 10.343-4.016 3.766-11.11 3.766zm-9.86 4.188q-6.343 1.562-9.89 5.906Q8.5 49.079 8.5 55.329q0 8.733 6.219 13.812 6.234 5.078 17.062 5.078 10.89 0 17.094-5.078 6.203-5.079 6.203-13.813 0-6.25-3.547-10.61-3.531-4.343-9.828-5.906 7.125-1.656 11.094-6.5 3.984-4.828 3.984-11.796 0-10.61-6.468-16.282-6.47-5.656-18.532-5.656-12.047 0-18.531 5.656-6.469 5.672-6.469 16.282 0 6.968 4 11.797 4.016 4.843 11.14 6.5zM18.314 54.39q0-5.657 3.53-8.828 3.548-3.172 9.938-3.172 6.36 0 9.938 3.172 3.593 3.171 3.593 8.828 0 5.672-3.593 8.843-3.578 3.172-9.938 3.172-6.39 0-9.937-3.172-3.532-3.172-3.532-8.843z" id="DejaVuSans-38"/>
            </defs>
            <g transform="matrix(.1 0 0 -.1 61.847 256.715)">
              <use xlink:href="#DejaVuSans-2212"/>
              <use x="83.789" xlink:href="#DejaVuSans-38"/>
            </g>
          </g>
        </g>
        <g id="xtick_2">
          <use x="107.264" xlink:href="#mbdc2f9ffd6" y="242.116" stroke="#000" stroke-width=".8" id="line2d_2"/>
          <g id="text_2">
            <defs>
              <path d="M33.016 40.375q-6.641 0-10.532-4.547-3.875-4.531-3.875-12.437 0-7.86 3.875-12.438 3.891-4.562 10.532-4.562 6.64 0 10.515 4.562 3.875 4.578 3.875 12.438 0 7.906-3.875 12.437-3.875 4.547-10.515 4.547zm19.578 30.922v-8.984q-3.719 1.75-7.5 2.671-3.782.938-7.5.938-9.766 0-14.922-6.594-5.14-6.594-5.875-19.922 2.875 4.25 7.219 6.516 4.359 2.266 9.578 2.266 10.984 0 17.36-6.672 6.374-6.657 6.374-18.125 0-11.235-6.64-18.032-6.641-6.78-17.672-6.78-12.657 0-19.344 9.687-6.688 9.703-6.688 28.109 0 17.281 8.204 27.563 8.203 10.28 22.015 10.28 3.719 0 7.5-.734t7.89-2.187z" id="DejaVuSans-36"/>
            </defs>
            <g transform="matrix(.1 0 0 -.1 99.893 256.715)">
              <use xlink:href="#DejaVuSans-2212"/>
              <use x="83.789" xlink:href="#DejaVuSans-36"/>
            </g>
          </g>
        </g>
        <g id="xtick_3">
          <use x="145.309" xlink:href="#mbdc2f9ffd6" y="242.116" stroke="#000" stroke-width=".8" id="line2d_3"/>
          <g id="text_3">
            <defs>
              <path d="M37.797 64.313L12.89 25.39h24.906zm-2.594 8.593H47.61V25.391h10.407v-8.203H47.609V0h-9.812v17.188H4.89v9.515z" id="DejaVuSans-34"/>
            </defs>
            <g transform="matrix(.1 0 0 -.1 137.938 256.715)">
              <use xlink:href="#DejaVuSans-2212"/>
              <use x="83.789" xlink:href="#DejaVuSans-34"/>
            </g>
          </g>
        </g>
        <g id="xtick_4">
          <use x="183.355" xlink:href="#mbdc2f9ffd6" y="242.116" stroke="#000" stroke-width=".8" id="line2d_4"/>
          <g id="text_4">
            <defs>
              <path d="M19.188 8.297h34.421V0H7.33v8.297q5.609 5.812 15.296 15.594 9.703 9.797 12.188 12.64 4.734 5.313 6.609 9 1.89 3.688 1.89 7.25 0 5.813-4.078 9.469-4.078 3.672-10.625 3.672-4.64 0-9.797-1.61-5.14-1.609-11-4.89v9.969Q13.767 71.78 18.938 73q5.188 1.219 9.485 1.219 11.328 0 18.062-5.672 6.735-5.656 6.735-15.125 0-4.5-1.688-8.531-1.672-4.016-6.125-9.485-1.218-1.422-7.765-8.187-6.532-6.766-18.453-18.922z" id="DejaVuSans-32"/>
            </defs>
            <g transform="matrix(.1 0 0 -.1 175.983 256.715)">
              <use xlink:href="#DejaVuSans-2212"/>
              <use x="83.789" xlink:href="#DejaVuSans-32"/>
            </g>
          </g>
        </g>
        <g id="xtick_5">
          <use x="221.4" xlink:href="#mbdc2f9ffd6" y="242.116" stroke="#000" stroke-width=".8" id="line2d_5"/>
          <g id="text_5">
            <defs>
              <path d="M31.781 66.406q-7.61 0-11.453-7.5Q16.5 51.422 16.5 36.375q0-14.984 3.828-22.484 3.844-7.5 11.453-7.5 7.672 0 11.5 7.5 3.844 7.5 3.844 22.484 0 15.047-3.844 22.531-3.828 7.5-11.5 7.5zm0 7.813q12.266 0 18.735-9.703 6.468-9.688 6.468-28.141 0-18.406-6.468-28.11-6.47-9.687-18.735-9.687-12.25 0-18.718 9.688-6.47 9.703-6.47 28.109 0 18.453 6.47 28.14Q19.53 74.22 31.78 74.22z" id="DejaVuSans-30"/>
            </defs>
            <use xlink:href="#DejaVuSans-30" transform="matrix(.1 0 0 -.1 218.219 256.715)"/>
          </g>
        </g>
        <g id="xtick_6">
          <use x="259.445" xlink:href="#mbdc2f9ffd6" y="242.116" stroke="#000" stroke-width=".8" id="line2d_6"/>
          <use xlink:href="#DejaVuSans-32" transform="matrix(.1 0 0 -.1 256.264 256.715)" id="text_6"/>
        </g>
        <g id="xtick_7">
          <use x="297.491" xlink:href="#mbdc2f9ffd6" y="242.116" stroke="#000" stroke-width=".8" id="line2d_7"/>
          <use xlink:href="#DejaVuSans-34" transform="matrix(.1 0 0 -.1 294.31 256.715)" id="text_7"/>
        </g>
        <g id="xtick_8">
          <use x="335.536" xlink:href="#mbdc2f9ffd6" y="242.116" stroke="#000" stroke-width=".8" id="line2d_8"/>
          <use xlink:href="#DejaVuSans-36" transform="matrix(.1 0 0 -.1 332.355 256.715)" id="text_8"/>
        </g>
        <g id="xtick_9">
          <use x="373.582" xlink:href="#mbdc2f9ffd6" y="242.116" stroke="#000" stroke-width=".8" id="line2d_9"/>
          <use xlink:href="#DejaVuSans-38" transform="matrix(.1 0 0 -.1 370.4 256.715)" id="text_9"/>
        </g>
      </g>
      <g id="matplotlib.axis_2">
        <g id="ytick_1">
          <g id="line2d_10">
            <defs>
              <path d="M0 0h-3.5" id="mcf3eafa233" stroke="#000" stroke-width=".8"/>
            </defs>
            <use x="221.4" xlink:href="#mcf3eafa233" y="242.116" stroke="#000" stroke-width=".8"/>
          </g>
          <use xlink:href="#DejaVuSans-30" transform="matrix(.1 0 0 -.1 208.037 245.916)" id="text_10"/>
        </g>
        <g id="ytick_2">
          <use x="221.4" xlink:href="#mcf3eafa233" y="217.407" stroke="#000" stroke-width=".8" id="line2d_11"/>
          <g id="text_11">
            <defs>
              <path d="M12.406 8.297h16.11v55.625l-17.532-3.516v8.985l17.438 3.515h9.86V8.296H54.39V0H12.406z" id="DejaVuSans-31"/>
            </defs>
            <use xlink:href="#DejaVuSans-31" transform="matrix(.1 0 0 -.1 208.037 221.206)"/>
          </g>
        </g>
        <g id="ytick_3">
          <use x="221.4" xlink:href="#mcf3eafa233" y="192.698" stroke="#000" stroke-width=".8" id="line2d_12"/>
          <use xlink:href="#DejaVuSans-32" transform="matrix(.1 0 0 -.1 208.037 196.497)" id="text_12"/>
        </g>
        <g id="ytick_4">
          <use x="221.4" xlink:href="#mcf3eafa233" y="167.989" stroke="#000" stroke-width=".8" id="line2d_13"/>
          <g id="text_13">
            <defs>
              <path d="M40.578 39.313Q47.656 37.797 51.625 33q3.984-4.781 3.984-11.813 0-10.78-7.422-16.703-7.421-5.906-21.093-5.906-4.578 0-9.438.906-4.86.907-10.031 2.72v9.515q4.094-2.39 8.969-3.61 4.89-1.218 10.218-1.218 9.266 0 14.125 3.656 4.86 3.656 4.86 10.64 0 6.454-4.516 10.079-4.515 3.64-12.562 3.64h-8.5v8.11h8.89q7.266 0 11.125 2.906 3.86 2.906 3.86 8.375 0 5.61-3.985 8.61-3.968 3.015-11.39 3.015-4.063 0-8.703-.89-4.641-.876-10.203-2.72v8.782q5.624 1.562 10.53 2.344 4.907.78 9.25.78 11.235 0 17.766-5.109 6.547-5.093 6.547-13.78 0-6.063-3.468-10.235-3.47-4.172-9.86-5.782z" id="DejaVuSans-33"/>
            </defs>
            <use xlink:href="#DejaVuSans-33" transform="matrix(.1 0 0 -.1 208.037 171.788)"/>
          </g>
        </g>
        <g id="ytick_5">
          <use x="221.4" xlink:href="#mcf3eafa233" y="143.28" stroke="#000" stroke-width=".8" id="line2d_14"/>
          <use xlink:href="#DejaVuSans-34" transform="matrix(.1 0 0 -.1 208.037 147.08)" id="text_14"/>
        </g>
        <g id="ytick_6">
          <use x="221.4" xlink:href="#mcf3eafa233" y="118.571" stroke="#000" stroke-width=".8" id="line2d_15"/>
          <g id="text_15">
            <defs>
              <path d="M10.797 72.906h38.719v-8.312H19.828v-17.86q2.14.735 4.281 1.094 2.157.36 4.313.36 12.203 0 19.328-6.688 7.14-6.688 7.14-18.11 0-11.765-7.328-18.296-7.328-6.516-20.656-6.516-4.593 0-9.36.781-4.75.782-9.827 2.344v9.922q4.39-2.39 9.078-3.563 4.687-1.171 9.906-1.171 8.453 0 13.375 4.437 4.938 4.438 4.938 12.063 0 7.609-4.938 12.047-4.922 4.453-13.375 4.453-3.953 0-7.89-.875-3.922-.875-8.016-2.735z" id="DejaVuSans-35"/>
            </defs>
            <use xlink:href="#DejaVuSans-35" transform="matrix(.1 0 0 -.1 208.037 122.37)"/>
          </g>
        </g>
        <g id="ytick_7">
          <use x="221.4" xlink:href="#mcf3eafa233" y="93.862" stroke="#000" stroke-width=".8" id="line2d_16"/>
          <use xlink:href="#DejaVuSans-36" transform="matrix(.1 0 0 -.1 208.037 97.661)" id="text_16"/>
        </g>
        <g id="ytick_8">
          <use x="221.4" xlink:href="#mcf3eafa233" y="69.153" stroke="#000" stroke-width=".8" id="line2d_17"/>
          <g id="text_17">
            <defs>
              <path d="M8.203 72.906h46.875v-4.203L28.61 0H18.312L43.22 64.594H8.203z" id="DejaVuSans-37"/>
            </defs>
            <use xlink:href="#DejaVuSans-37" transform="matrix(.1 0 0 -.1 208.037 72.952)"/>
          </g>
        </g>
        <g id="ytick_9">
          <use x="221.4" xlink:href="#mcf3eafa233" y="44.444" stroke="#000" stroke-width=".8" id="line2d_18"/>
          <use xlink:href="#DejaVuSans-38" transform="matrix(.1 0 0 -.1 208.037 48.243)" id="text_18"/>
        </g>
      </g>
      <path clip-path="url(#pe3266b6016)" d="M69.218 242.116H221.4l19.023-24.709 19.022-24.709 19.023-24.709 19.023-24.709 19.023-24.71 19.022-24.708 19.023-24.71 19.023-24.708" fill="none" stroke="#1f77b4" stroke-linecap="square" stroke-width="1.5" id="line2d_19"/>
      <path d="M221.4 252V34.56" fill="none" stroke="#000" stroke-linecap="square" stroke-width=".8" id="patch_3"/>
      <path d="M54 242.116h334.8" fill="none" stroke="#000" stroke-linecap="square" stroke-width=".8" id="patch_4"/>
    </g>
  </g>
  <defs>
    <clipPath id="pe3266b6016">
      <path d="M54 34.56h334.8V252H54z"/>
    </clipPath>
  </defs>
</svg>
