<svg height="211.2" viewBox="0 0 288 158.4" width="384" xmlns="http://www.w3.org/2000/svg" xmlns:xlink="http://www.w3.org/1999/xlink">
  <defs>
    <style>
      *{stroke-linecap:butt;stroke-linejoin:round}
    </style>
  </defs>
  <g id="figure_1">
    <path d="M0 158.4h288V0H0z" fill="#fff" id="patch_1"/>
    <g id="axes_1">
      <path d="M36 138.6h223.2V19.008H36z" fill="#fff" id="patch_2"/>
      <path d="M259.2 133.164l-11.16 2.99 3.348-2.983H36v-.014h215.388l-3.348-2.983z" stroke="#000" id="patch_3"/>
      <path d="M147.6 19.008l3.069 10.874-3.063-3.263V138.6h-.012V26.62l-3.063 3.262z" stroke="#000" id="patch_4"/>
      <g id="matplotlib.axis_1">
        <g id="xtick_1">
          <g id="text_1">
            <defs>
              <path d="M10.594 35.5h62.593v-8.297H10.594z" id="DejaVuSans-2212"/>
              <path d="M10.797 72.906h38.719v-8.312H19.828v-17.86q2.14.735 4.281 1.094 2.157.36 4.313.36 12.203 0 19.328-6.688 7.14-6.688 7.14-18.11 0-11.765-7.328-18.296-7.328-6.516-20.656-6.516-4.593 0-9.36.781-4.75.782-9.827 2.344v9.922q4.39-2.39 9.078-3.563 4.687-1.171 9.906-1.171 8.453 0 13.375 4.437 4.938 4.438 4.938 12.063 0 7.609-4.938 12.047-4.922 4.453-13.375 4.453-3.953 0-7.89-.875-3.922-.875-8.016-2.735z" id="DejaVuSans-35"/>
            </defs>
            <g transform="matrix(.1 0 0 -.1 76.82 153.198)">
              <use xlink:href="#DejaVuSans-2212"/>
              <use x="83.789" xlink:href="#DejaVuSans-35"/>
            </g>
          </g>
        </g>
        <g id="xtick_2">
          <g id="text_2">
            <defs>
              <path d="M31.781 66.406q-7.61 0-11.453-7.5Q16.5 51.422 16.5 36.375q0-14.984 3.828-22.484 3.844-7.5 11.453-7.5 7.672 0 11.5 7.5 3.844 7.5 3.844 22.484 0 15.047-3.844 22.531-3.828 7.5-11.5 7.5zm0 7.813q12.266 0 18.735-9.703 6.468-9.688 6.468-28.141 0-18.406-6.468-28.11-6.47-9.687-18.735-9.687-12.25 0-18.718 9.688-6.47 9.703-6.47 28.109 0 18.453 6.47 28.14Q19.53 74.22 31.78 74.22z" id="DejaVuSans-30"/>
            </defs>
            <use xlink:href="#DejaVuSans-30" transform="matrix(.1 0 0 -.1 144.419 153.198)"/>
          </g>
        </g>
        <g id="xtick_3">
          <use xlink:href="#DejaVuSans-35" transform="matrix(.1 0 0 -.1 207.828 153.198)" id="text_3"/>
        </g>
      </g>
      <g id="matplotlib.axis_2">
        <g id="ytick_1">
          <g id="line2d_1">
            <defs>
              <path d="M0 0h-3.5" id="m8aee9e9cb3" stroke="#000" stroke-width=".8"/>
            </defs>
            <use x="147.6" xlink:href="#m8aee9e9cb3" y="65.214" stroke="#000" stroke-width=".8"/>
          </g>
          <use xlink:href="#DejaVuSans-35" transform="matrix(.1 0 0 -.1 134.238 69.013)" id="text_4"/>
        </g>
      </g>
      <path clip-path="url(#p88a7a19b28)" d="M46.145 133.164H147.6l12.682-13.59 12.682-13.59 12.681-13.59 12.682-13.59 12.682-13.59 12.682-13.59 12.682-13.59 12.682-13.59" fill="none" stroke="red" stroke-linecap="square" stroke-width="2" id="line2d_2"/>
    </g>
  </g>
  <defs>
    <clipPath id="p88a7a19b28">
      <path d="M36 19.008h223.2V138.6H36z"/>
    </clipPath>
  </defs>
</svg>
