<svg data-name="ReLU" xmlns="http://www.w3.org/2000/svg" viewBox="0 0 148.667 103.479">
  <path fill="none" stroke="#000" stroke-miterlimit="10" stroke-width="2" d="M0 84h143.015"/>
  <path d="M131.193 90.361l-.684-1.881L142.82 84l-12.311-4.48.684-1.879L148.667 84l-17.474 6.361z"/>
  <path fill="none" stroke="#000" stroke-miterlimit="10" stroke-width="2" d="M65.333 84V5.651"/>
  <path d="M71.695 17.474l-1.881.683-4.481-12.31-4.48 12.31-1.879-.683L65.333 0l6.362 17.474z"/>
  <path fill="none" stroke="#ff5f17" stroke-miterlimit="10" d="M65.333 84l49.334-49.333"/>
  <path d="M52.944 103.333v-8.59h3.808a5.069 5.069 0 0 1 1.746.231 1.91 1.91 0 0 1 .956.817 2.438 2.438 0 0 1 .357 1.295 2.16 2.16 0 0 1-.592 1.541 2.995 2.995 0 0 1-1.828.797 2.946 2.946 0 0 1 .686.428 5.906 5.906 0 0 1 .943 1.143l1.494 2.337h-1.43l-1.137-1.787q-.498-.773-.82-1.183a2.58 2.58 0 0 0-.577-.574 1.704 1.704 0 0 0-.518-.229 3.41 3.41 0 0 0-.633-.04H54.08v3.813zm1.137-4.8h2.443a3.665 3.665 0 0 0 1.219-.16 1.297 1.297 0 0 0 .668-.516 1.394 1.394 0 0 0 .228-.77 1.28 1.28 0 0 0-.442-1.002 2.07 2.07 0 0 0-1.398-.392h-2.718zM65.717 101.329l1.09.135a2.659 2.659 0 0 1-.955 1.482 3.236 3.236 0 0 1-3.946-.314 3.285 3.285 0 0 1-.8-2.358 3.439 3.439 0 0 1 .808-2.437 2.737 2.737 0 0 1 2.098-.868 2.66 2.66 0 0 1 2.04.85 3.376 3.376 0 0 1 .79 2.391q0 .094-.006.281h-4.64a2.391 2.391 0 0 0 .58 1.57 1.727 1.727 0 0 0 1.3.545 1.614 1.614 0 0 0 .99-.304 2.024 2.024 0 0 0 .651-.973zm-3.463-1.705h3.475a2.108 2.108 0 0 0-.399-1.178 1.616 1.616 0 0 0-1.306-.61 1.675 1.675 0 0 0-1.222.487 1.924 1.924 0 0 0-.548 1.3zM68.22 103.333v-8.59h1.136v7.576h4.23v1.013zM80.577 94.743h1.136v4.963a5.874 5.874 0 0 1-.293 2.056 2.51 2.51 0 0 1-1.057 1.24 3.746 3.746 0 0 1-2.007.477 4.125 4.125 0 0 1-1.974-.416 2.375 2.375 0 0 1-1.096-1.204 5.739 5.739 0 0 1-.328-2.153v-4.963h1.137V99.7a4.832 4.832 0 0 0 .208 1.65 1.58 1.58 0 0 0 .715.817 2.48 2.48 0 0 0 1.239.287 2.368 2.368 0 0 0 1.787-.568 3.275 3.275 0 0 0 .533-2.186z"/>
  <path fill="none" stroke="#ff5f17" stroke-miterlimit="10" d="M65.333 84H0"/>
</svg>
